<svg width="2665" height="800" viewBox="0 0 2665 800" fill="none" xmlns="http://www.w3.org/2000/svg">
<g clip-path="url(#clip0_35_380)">
<path fill-rule="evenodd" clip-rule="evenodd" d="M355.5 168.5C360.167 168.5 364.833 168.5 369.5 168.5C379.959 170.431 389.959 173.764 399.5 178.5C406.515 174.825 413.848 171.992 421.5 170C472.865 166.68 518.532 181.013 558.5 213C567.17 220.006 574.004 228.506 579 238.5C581.967 246.702 584.467 255.035 586.5 263.5C603.595 266.46 617.762 274.46 629 287.5C643.209 305.918 653.709 326.251 660.5 348.5C666.133 367.832 670.3 387.499 673 407.5C673.667 422.5 673.667 437.5 673 452.5C671.66 462.702 669.493 472.702 666.5 482.5C665.717 480.657 665.05 478.657 664.5 476.5C662.955 475.548 661.288 475.215 659.5 475.5C659.5 474.167 659.5 472.833 659.5 471.5C660.833 471.5 662.167 471.5 663.5 471.5C663.5 468.833 663.5 466.167 663.5 463.5C664.833 463.5 666.167 463.5 667.5 463.5C667.5 462.167 667.5 460.833 667.5 459.5C666.167 459.5 664.833 459.5 663.5 459.5C663.5 458.167 663.5 456.833 663.5 455.5C664.833 455.5 666.167 455.5 667.5 455.5C667.167 452.833 666.833 450.167 666.5 447.5C665.5 447.5 664.5 447.5 663.5 447.5C663.5 446.167 663.5 444.833 663.5 443.5C664.5 443.5 665.5 443.5 666.5 443.5C666.5 440.833 666.5 438.167 666.5 435.5C665.5 435.5 664.5 435.5 663.5 435.5C663.5 434.167 663.5 432.833 663.5 431.5C664.5 431.5 665.5 431.5 666.5 431.5C666.5 430.167 666.5 428.833 666.5 427.5C665.5 427.5 664.5 427.5 663.5 427.5C663.5 424.833 663.5 422.167 663.5 419.5C664.5 419.5 665.5 419.5 666.5 419.5C666.232 416.881 666.565 414.381 667.5 412C667.167 411.833 666.833 411.667 666.5 411.5C665.833 412.833 665.167 414.167 664.5 415.5C663.52 412.914 663.187 410.247 663.5 407.5C662.167 407.5 660.833 407.5 659.5 407.5C659.5 406.167 659.5 404.833 659.5 403.5C660.5 403.5 661.5 403.5 662.5 403.5C662.5 400.833 662.5 398.167 662.5 395.5C661.5 395.5 660.5 395.5 659.5 395.5C658.861 389.624 658.861 383.791 659.5 378C658.968 375.98 657.635 375.147 655.5 375.5C655.5 372.833 655.5 370.167 655.5 367.5C654.167 367.5 652.833 367.5 651.5 367.5C651.354 358.067 650.354 348.733 648.5 339.5C646.833 339.5 645.167 339.5 643.5 339.5C643.824 335.445 643.491 331.445 642.5 327.5C640.504 324.099 639.338 320.432 639 316.5C637.989 315.663 636.822 315.33 635.5 315.5C635.5 312.833 635.5 310.167 635.5 307.5C634.167 307.5 632.833 307.5 631.5 307.5C630.833 304.833 630.167 302.167 629.5 299.5C627.5 299.5 625.5 299.5 623.5 299.5C623.5 298.167 623.5 296.833 623.5 295.5C622.167 295.5 620.833 295.5 619.5 295.5C619.5 292.833 619.5 290.167 619.5 287.5C616.833 287.5 614.167 287.5 611.5 287.5C611.5 284.833 611.5 282.167 611.5 279.5C607.5 279.5 603.5 279.5 599.5 279.5C599.5 278.167 599.5 276.833 599.5 275.5C595.5 275.5 591.5 275.5 587.5 275.5C587.449 273.43 588.115 271.597 589.5 270C588.101 266.047 585.934 265.547 583 268.5C581.234 267.767 579.401 267.433 577.5 267.5C577.5 266.167 577.5 264.833 577.5 263.5C575.5 263.5 573.5 263.5 571.5 263.5C571.666 255.826 571.5 248.159 571 240.5C569.989 239.663 568.822 239.33 567.5 239.5C567.5 238.167 567.5 236.833 567.5 235.5C566.167 235.5 564.833 235.5 563.5 235.5C563.5 234.167 563.5 232.833 563.5 231.5C562.167 231.5 560.833 231.5 559.5 231.5C559.5 228.833 559.5 226.167 559.5 223.5C556.833 223.5 554.167 223.5 551.5 223.5C551.5 220.833 551.5 218.167 551.5 215.5C548.833 215.5 546.167 215.5 543.5 215.5C543.5 214.167 543.5 212.833 543.5 211.5C542.167 211.5 540.833 211.5 539.5 211.5C539.833 208.5 538.5 207.167 535.5 207.5C535.5 206.167 535.5 204.833 535.5 203.5C531.5 203.5 527.5 203.5 523.5 203.5C523.5 202.167 523.5 200.833 523.5 199.5C522.167 199.5 520.833 199.5 519.5 199.5C519.5 198.167 519.5 196.833 519.5 195.5C515.5 195.5 511.5 195.5 507.5 195.5C507.5 194.167 507.5 192.833 507.5 191.5C503.5 191.5 499.5 191.5 495.5 191.5C495.5 190.167 495.5 188.833 495.5 187.5C494.167 187.5 492.833 187.5 491.5 187.5C491.5 186.5 491.5 185.5 491.5 184.5C490.167 184.5 488.833 184.5 487.5 184.5C487.5 185.5 487.5 186.5 487.5 187.5C486.167 187.5 484.833 187.5 483.5 187.5C483.083 184.657 482.083 181.99 480.5 179.5C479.571 180.689 479.238 182.022 479.5 183.5C478.167 183.5 476.833 183.5 475.5 183.5C475.5 182.167 475.5 180.833 475.5 179.5C474.167 179.5 472.833 179.5 471.5 179.5C471.5 180.833 471.5 182.167 471.5 183.5C470.167 183.5 468.833 183.5 467.5 183.5C467.5 182.167 467.5 180.833 467.5 179.5C466.167 179.5 464.833 179.5 463.5 179.5C463.227 177.549 463.893 176.049 465.5 175C448.799 174.148 437.466 174.314 431.5 175.5C431.5 176.833 431.5 178.167 431.5 179.5C427.5 179.5 423.5 179.5 419.5 179.5C419.5 180.833 419.5 182.167 419.5 183.5C412.833 183.5 406.167 183.5 399.5 183.5C399.5 184.833 399.5 186.167 399.5 187.5C396.833 187.5 394.167 187.5 391.5 187.5C391.5 186.167 391.5 184.833 391.5 183.5C383.5 183.5 375.5 183.5 367.5 183.5C367.5 182.167 367.5 180.833 367.5 179.5C366.167 179.5 364.833 179.5 363.5 179.5C363.5 180.833 363.5 182.167 363.5 183.5C358.167 183.5 352.833 183.5 347.5 183.5C347.5 182.5 347.5 181.5 347.5 180.5C346.167 180.5 344.833 180.5 343.5 180.5C343.5 181.5 343.5 182.5 343.5 183.5C341.143 183.337 338.81 183.503 336.5 184C335.663 185.011 335.33 186.178 335.5 187.5C334.167 187.5 332.833 187.5 331.5 187.5C331.762 186.022 331.429 184.689 330.5 183.5C328.45 184.077 327.45 185.41 327.5 187.5C324.833 186.833 322.167 186.167 319.5 185.5C319.5 187.833 319.5 190.167 319.5 192.5C309.369 190.438 299.036 189.938 288.5 191C287.62 192.356 287.286 193.856 287.5 195.5C283.5 194.167 279.5 194.167 275.5 195.5C275.5 196.833 275.5 198.167 275.5 199.5C273.143 199.337 270.81 199.503 268.5 200C267.663 201.011 267.33 202.178 267.5 203.5C266.167 203.5 264.833 203.5 263.5 203.5C263.5 204.833 263.5 206.167 263.5 207.5C262.167 207.5 260.833 207.5 259.5 207.5C259.5 208.833 259.5 210.167 259.5 211.5C258.167 211.5 256.833 211.5 255.5 211.5C255.5 212.833 255.5 214.167 255.5 215.5C252.881 215.232 250.381 215.565 248 216.5C247.502 219.817 247.335 223.15 247.5 226.5C246.167 226.5 244.833 226.5 243.5 226.5C243.5 228.167 243.5 229.833 243.5 231.5C241.143 231.337 238.81 231.503 236.5 232C235.663 233.011 235.33 234.178 235.5 235.5C234.167 235.5 232.833 235.5 231.5 235.5C231.5 236.833 231.5 238.167 231.5 239.5C230.167 239.5 228.833 239.5 227.5 239.5C227.5 238.167 227.5 236.833 227.5 235.5C226.167 235.5 224.833 235.5 223.5 235.5C223.5 236.833 223.5 238.167 223.5 239.5C221.143 239.337 218.81 239.503 216.5 240C215.663 241.011 215.33 242.178 215.5 243.5C212.833 243.5 210.167 243.5 207.5 243.5C207.5 244.833 207.5 246.167 207.5 247.5C204.833 247.5 202.167 247.5 199.5 247.5C199.5 248.833 199.5 250.167 199.5 251.5C198.167 251.5 196.833 251.5 195.5 251.5C195.5 252.833 195.5 254.167 195.5 255.5C194.167 255.5 192.833 255.5 191.5 255.5C191.5 256.833 191.5 258.167 191.5 259.5C190.167 259.5 188.833 259.5 187.5 259.5C187.5 260.833 187.5 262.167 187.5 263.5C186.167 263.5 184.833 263.5 183.5 263.5C183.5 264.833 183.5 266.167 183.5 267.5C181.856 267.286 180.356 267.62 179 268.5C176.667 264.867 175.167 265.533 174.5 270.5C175.167 271.833 175.833 273.167 176.5 274.5C172.876 278.082 171.209 282.415 171.5 287.5C172.833 287.5 174.167 287.5 175.5 287.5C175.5 292.833 175.5 298.167 175.5 303.5C174.178 303.33 173.011 303.663 172 304.5C171.503 306.81 171.337 309.143 171.5 311.5C170.167 311.5 168.833 311.5 167.5 311.5C167.5 312.833 167.5 314.167 167.5 315.5C164.5 315.167 163.167 316.5 163.5 319.5C162.167 319.5 160.833 319.5 159.5 319.5C159.5 320.833 159.5 322.167 159.5 323.5C157.226 323.285 155.059 322.618 153 321.5C151.188 321.493 149.688 322.16 148.5 323.5C147.914 323.291 147.414 322.957 147 322.5C146.245 325.719 144.412 328.053 141.5 329.5C140.233 331.371 140.233 333.204 141.5 335C135.645 341.398 133.312 348.898 134.5 357.5C135.425 356.359 136.259 356.359 137 357.5C138.044 356.377 138.71 355.044 139 353.5C140.049 355.107 141.549 355.773 143.5 355.5C143.5 356.833 143.5 358.167 143.5 359.5C141.856 359.286 140.356 359.62 139 360.5C138.74 364.25 138.073 367.916 137 371.5C136.667 370.167 136.333 368.833 136 367.5C135.333 370.833 135.333 374.167 136 377.5C136.645 378.646 137.478 379.646 138.5 380.5C138.303 385.23 137.636 390.063 136.5 395C137.448 395.483 138.448 395.649 139.5 395.5C139.5 390.167 139.5 384.833 139.5 379.5C140.833 379.5 142.167 379.5 143.5 379.5C143.334 385.842 143.5 392.175 144 398.5C145.011 399.337 146.178 399.67 147.5 399.5C147.5 400.833 147.5 402.167 147.5 403.5C148.833 403.5 150.167 403.5 151.5 403.5C150.629 406.062 150.629 408.728 151.5 411.5C152.833 411.5 154.167 411.5 155.5 411.5C155.5 412.833 155.5 414.167 155.5 415.5C156.833 415.5 158.167 415.5 159.5 415.5C159.5 418.167 159.5 420.833 159.5 423.5C162.167 423.5 164.833 423.5 167.5 423.5C167.5 425.5 167.5 427.5 167.5 429.5C170.167 430.167 172.833 430.833 175.5 431.5C175.5 432.833 175.5 434.167 175.5 435.5C178.167 435.5 180.833 435.5 183.5 435.5C183.5 437.5 183.5 439.5 183.5 441.5C186.167 440.833 188.833 440.167 191.5 439.5C191.227 441.451 191.893 442.951 193.5 444C192.975 444.692 192.308 445.192 191.5 445.5C188.45 443.797 185.45 443.63 182.5 445C184.167 445.333 185.833 445.667 187.5 446C186.5 446.333 185.5 446.667 184.5 447C185.738 447.69 185.738 448.19 184.5 448.5C177.801 446.649 171.468 443.983 165.5 440.5C135.443 417.351 124.11 387.018 131.5 349.5C137.636 328.934 149.469 312.267 167 299.5C168.013 291.823 169.18 284.156 170.5 276.5C172.416 269.335 175.416 262.668 179.5 256.5C193.787 239.757 211.787 228.923 233.5 224C238.841 213.828 245.841 204.995 254.5 197.5C266.278 188.459 279.612 183.125 294.5 181.5C296.415 181.784 298.081 181.451 299.5 180.5C306.175 180.666 312.842 180.5 319.5 180C330.668 173.443 342.668 169.61 355.5 168.5Z" fill="#0B1D32"/>
<path fill-rule="evenodd" clip-rule="evenodd" d="M322.5 312.5C321.29 314.552 320.29 316.718 319.5 319C319.785 320.89 320.785 322.223 322.5 323C321.495 324.507 320.162 325.673 318.5 326.5C321.428 327.484 324.428 327.817 327.5 327.5C327.5 326.167 327.5 324.833 327.5 323.5C328.833 323.5 330.167 323.5 331.5 323.5C331.5 324.833 331.5 326.167 331.5 327.5C332.833 327.5 334.167 327.5 335.5 327.5C335.5 328.833 335.5 330.167 335.5 331.5C336.833 331.5 338.167 331.5 339.5 331.5C339.5 334.167 339.5 336.833 339.5 339.5C340.833 339.5 342.167 339.5 343.5 339.5C343.5 336.167 343.5 332.833 343.5 329.5C346.358 329.595 348.691 330.762 350.5 333C350.167 333.333 349.833 333.667 349.5 334C352.762 334.771 355.762 336.104 358.5 338C357.542 339.147 357.875 340.147 359.5 341C358.692 342.706 357.359 343.539 355.5 343.5C355.5 344.833 355.5 346.167 355.5 347.5C356.833 347.5 358.167 347.5 359.5 347.5C359.5 348.833 359.5 350.167 359.5 351.5C360.833 351.5 362.167 351.5 363.5 351.5C363.5 355.5 363.5 359.5 363.5 363.5C362.167 363.5 360.833 363.5 359.5 363.5C359.5 364.833 359.5 366.167 359.5 367.5C357.5 367.5 355.5 367.5 353.5 367.5C353.67 368.822 353.337 369.989 352.5 371C353.448 371.483 354.448 371.649 355.5 371.5C355.5 372.833 355.5 374.167 355.5 375.5C354.167 375.5 352.833 375.5 351.5 375.5C351.5 379.5 351.5 383.5 351.5 387.5C352.833 387.5 354.167 387.5 355.5 387.5C355.421 389.666 354.754 391.666 353.5 393.5C354.754 395.334 355.421 397.334 355.5 399.5C354.167 399.5 352.833 399.5 351.5 399.5C351.5 400.833 351.5 402.167 351.5 403.5C352.833 403.5 354.167 403.5 355.5 403.5C356.032 411.641 355.366 419.641 353.5 427.5C353.833 428.167 354.167 428.833 354.5 429.5C355.842 427.995 357.508 427.328 359.5 427.5C359.5 428.833 359.5 430.167 359.5 431.5C358.167 431.5 356.833 431.5 355.5 431.5C355.5 440.833 355.5 450.167 355.5 459.5C354.167 459.5 352.833 459.5 351.5 459.5C351.5 460.833 351.5 462.167 351.5 463.5C350.5 463.5 349.5 463.5 348.5 463.5C348.688 461.897 348.188 460.563 347 459.5C346.667 427.5 346.333 395.5 346 363.5C345.5 363 345 362.5 344.5 362C334.167 361.667 323.833 361.333 313.5 361C310.88 357.905 308.38 358.071 306 361.5C305.692 360.692 305.192 360.025 304.5 359.5C303.571 360.689 303.238 362.022 303.5 363.5C304.978 363.238 306.311 363.571 307.5 364.5C306.167 365.833 304.833 367.167 303.5 368.5C305.005 369.842 305.672 371.508 305.5 373.5C303.508 373.672 301.842 373.005 300.5 371.5C300.128 385.327 299.128 398.994 297.5 412.5C299.312 415.899 299.979 419.566 299.5 423.5C298.167 423.5 296.833 423.5 295.5 423.5C295.5 426.167 295.5 428.833 295.5 431.5C294.167 431.5 292.833 431.5 291.5 431.5C291.187 434.247 291.52 436.914 292.5 439.5C294.577 440.988 295.577 442.988 295.5 445.5C296.978 445.238 298.311 445.571 299.5 446.5C296.412 447.079 293.745 448.413 291.5 450.5C292.383 452.48 292.217 454.48 291 456.5C290.667 446.167 290.333 435.833 290 425.5C289.831 437.007 289.331 448.341 288.5 459.5C288.5 443.167 288.5 426.833 288.5 410.5C277.833 410.5 267.167 410.5 256.5 410.5C260.982 409.674 265.649 409.174 270.5 409C265.276 407.86 260.109 407.693 255 408.5C253.795 407.929 252.628 407.262 251.5 406.5C254.811 403.611 256.144 399.945 255.5 395.5C254.167 395.5 252.833 395.5 251.5 395.5C251.739 393.533 251.406 391.699 250.5 390C252.044 390.487 253.71 390.987 255.5 391.5C255.5 390.167 255.5 388.833 255.5 387.5C256.833 387.5 258.167 387.5 259.5 387.5C259.229 385.179 259.896 383.179 261.5 381.5C259.816 380.146 259.316 378.479 260 376.5C266.833 369.667 273.667 362.833 280.5 356C282.788 355.178 285.122 354.511 287.5 354C288.925 352.286 288.592 350.953 286.5 350C290.071 345.923 294.071 342.423 298.5 339.5C301.447 338.679 304.447 338.179 307.5 338C307.108 335.646 307.108 333.146 307.5 330.5C306.5 330.5 305.5 330.5 304.5 330.5C305.5 329.167 306.5 327.833 307.5 326.5C312.5 321.833 317.5 317.167 322.5 312.5Z" fill="#0B1E31"/>
<path fill-rule="evenodd" clip-rule="evenodd" d="M390.5 328.5C394.167 325.167 397.833 321.833 401.5 318.5C403.765 319.17 405.098 320.17 405.5 321.5C407.569 321.176 407.902 320.342 406.5 319C407.333 318.167 408.167 317.333 409 316.5C410.746 318.457 412.912 319.457 415.5 319.5C415.5 318.167 415.5 316.833 415.5 315.5C418.897 314.073 422.23 313.407 425.5 313.5C425.5 358.167 425.5 402.833 425.5 447.5C423.952 447.179 423.285 446.179 423.5 444.5C420.833 444.167 418.167 443.833 415.5 443.5C416.377 440.248 417.043 436.915 417.5 433.5C417.259 430.711 416.592 428.044 415.5 425.5C418.167 420.167 418.167 414.833 415.5 409.5C416.167 408.167 416.833 406.833 417.5 405.5C414.833 400.167 414.833 394.833 417.5 389.5C416.527 387.608 415.86 385.608 415.5 383.5C418.011 376.123 418.011 368.79 415.5 361.5C416.167 360.167 416.833 358.833 417.5 357.5C414.833 350.833 414.833 344.167 417.5 337.5C415.752 333.007 415.085 328.34 415.5 323.5C410.167 323.5 404.833 323.5 399.5 323.5C399.343 324.873 399.51 326.207 400 327.5C402.072 324.085 403.239 324.085 403.5 327.5C404.833 327.5 406.167 327.5 407.5 327.5C407.5 328.833 407.5 330.167 407.5 331.5C406.167 331.5 404.833 331.5 403.5 331.5C403.5 334.167 403.5 336.833 403.5 339.5C402.167 339.5 400.833 339.5 399.5 339.5C399.5 338.167 399.5 336.833 399.5 335.5C398.167 335.5 396.833 335.5 395.5 335.5C395.5 336.833 395.5 338.167 395.5 339.5C394.167 339.5 392.833 339.5 391.5 339.5C391.5 340.833 391.5 342.167 391.5 343.5C390.167 343.5 388.833 343.5 387.5 343.5C387.5 344.833 387.5 346.167 387.5 347.5C384.833 347.5 382.167 347.5 379.5 347.5C379.5 348.833 379.5 350.167 379.5 351.5C376.5 351.167 375.167 352.5 375.5 355.5C383.353 355.107 391.02 356.107 398.5 358.5C399.687 359.519 400.687 360.686 401.5 362C390.326 362.17 379.326 362.67 368.5 363.5C368.5 363.833 368.5 364.167 368.5 364.5C368.5 395.833 368.5 427.167 368.5 458.5C373.407 460.289 378.74 461.122 384.5 461C383.763 464.132 383.43 467.632 383.5 471.5C382.167 471.5 380.833 471.5 379.5 471.5C379.5 470.167 379.5 468.833 379.5 467.5C374.167 467.5 368.833 467.5 363.5 467.5C363.083 464.657 362.083 461.99 360.5 459.5C359.571 460.689 359.238 462.022 359.5 463.5C356.833 463.5 354.167 463.5 351.5 463.5C351.5 462.167 351.5 460.833 351.5 459.5C352.833 459.5 354.167 459.5 355.5 459.5C355.5 450.167 355.5 440.833 355.5 431.5C356.833 431.5 358.167 431.5 359.5 431.5C359.5 430.167 359.5 428.833 359.5 427.5C357.508 427.328 355.842 427.995 354.5 429.5C354.167 428.833 353.833 428.167 353.5 427.5C355.366 419.641 356.032 411.641 355.5 403.5C354.167 403.5 352.833 403.5 351.5 403.5C351.5 402.167 351.5 400.833 351.5 399.5C352.833 399.5 354.167 399.5 355.5 399.5C355.421 397.334 354.754 395.334 353.5 393.5C354.754 391.666 355.421 389.666 355.5 387.5C354.167 387.5 352.833 387.5 351.5 387.5C351.5 383.5 351.5 379.5 351.5 375.5C352.833 375.5 354.167 375.5 355.5 375.5C355.5 374.167 355.5 372.833 355.5 371.5C354.448 371.649 353.448 371.483 352.5 371C353.337 369.989 353.67 368.822 353.5 367.5C355.5 367.5 357.5 367.5 359.5 367.5C359.5 366.167 359.5 364.833 359.5 363.5C360.833 363.5 362.167 363.5 363.5 363.5C363.5 359.5 363.5 355.5 363.5 351.5C362.167 351.5 360.833 351.5 359.5 351.5C359.5 350.167 359.5 348.833 359.5 347.5C358.167 347.5 356.833 347.5 355.5 347.5C355.5 346.167 355.5 344.833 355.5 343.5C357.359 343.539 358.692 342.706 359.5 341C357.875 340.147 357.542 339.147 358.5 338C355.762 336.104 352.762 334.771 349.5 334C349.833 333.667 350.167 333.333 350.5 333C348.691 330.762 346.358 329.595 343.5 329.5C343.5 332.833 343.5 336.167 343.5 339.5C342.167 339.5 340.833 339.5 339.5 339.5C339.5 336.833 339.5 334.167 339.5 331.5C338.167 331.5 336.833 331.5 335.5 331.5C335.5 330.167 335.5 328.833 335.5 327.5C334.167 327.5 332.833 327.5 331.5 327.5C331.5 326.167 331.5 324.833 331.5 323.5C330.167 323.5 328.833 323.5 327.5 323.5C327.5 324.833 327.5 326.167 327.5 327.5C324.428 327.817 321.428 327.484 318.5 326.5C320.162 325.673 321.495 324.507 322.5 323C320.785 322.223 319.785 320.89 319.5 319C320.29 316.718 321.29 314.552 322.5 312.5C324.281 309.954 326.614 308.454 329.5 308C343.349 321.35 357.349 334.516 371.5 347.5C378.188 341.479 384.521 335.146 390.5 328.5Z" fill="#0A1D31"/>
<path fill-rule="evenodd" clip-rule="evenodd" d="M160.5 258.5C155.013 268.783 152.513 279.783 153 291.5C137.413 304.087 126.08 319.754 119 338.5C110.86 367.271 113.526 394.938 127 421.5C147.34 451.759 175.84 467.592 212.5 469C217.239 483.649 225.572 495.816 237.5 505.5C238.5 506.833 239.5 508.167 240.5 509.5C240.389 510.117 240.056 510.617 239.5 511C237.527 511.495 235.527 511.662 233.5 511.5C233.819 509.25 233.319 507.25 232 505.5C231.5 506 231 506.5 230.5 507C226.848 507.499 223.182 507.665 219.5 507.5C220.061 505.092 220.561 502.759 221 500.5C219.301 499.594 217.467 499.261 215.5 499.5C215.5 498.167 215.5 496.833 215.5 495.5C214.167 495.5 212.833 495.5 211.5 495.5C211.5 492.833 211.5 490.167 211.5 487.5C210.167 487.5 208.833 487.5 207.5 487.5C207.5 485.167 207.5 482.833 207.5 480.5C203.534 479.838 199.534 479.505 195.5 479.5C195.5 477.833 195.5 476.167 195.5 474.5C191.534 475.162 187.534 475.495 183.5 475.5C183.5 474.167 183.5 472.833 183.5 471.5C185.527 471.662 187.527 471.495 189.5 471C186.62 470.316 183.787 470.483 181 471.5C178.291 470.01 178.125 468.51 180.5 467C179.975 466.308 179.308 465.808 178.5 465.5C175.05 467.224 171.383 467.891 167.5 467.5C167.5 468.833 167.5 470.167 167.5 471.5C166.167 471.5 164.833 471.5 163.5 471.5C163.665 467.818 163.499 464.152 163 460.5C162.667 460.833 162.333 461.167 162 461.5C161.076 456.721 158.243 454.555 153.5 455C154.167 455.667 154.833 456.333 155.5 457C151.695 458.785 147.695 459.618 143.5 459.5C143.5 458.167 143.5 456.833 143.5 455.5C142.167 455.5 140.833 455.5 139.5 455.5C138.987 452.551 138.987 449.718 139.5 447C138.5 446.5 137.5 446 136.5 445.5C135.158 447.005 133.492 447.672 131.5 447.5C131.5 446.167 131.5 444.833 131.5 443.5C128.833 443.5 126.167 443.5 123.5 443.5C123.5 440.833 123.5 438.167 123.5 435.5C122.167 435.5 120.833 435.5 119.5 435.5C119.5 432.833 119.5 430.167 119.5 427.5C118.167 427.5 116.833 427.5 115.5 427.5C115.817 424.428 115.484 421.428 114.5 418.5C113.833 418.833 113.167 419.167 112.5 419.5C111.614 415.524 110.948 411.524 110.5 407.5C108.167 407.5 105.833 407.5 103.5 407.5C104.188 402.295 105.188 397.128 106.5 392C105.552 391.517 104.552 391.351 103.5 391.5C103.16 388.856 103.827 386.523 105.5 384.5C104.268 381.7 103.601 378.7 103.5 375.5C103.256 371.896 103.922 368.563 105.5 365.5C102.563 362.019 103.229 359.353 107.5 357.5C104.986 354.532 104.986 351.532 107.5 348.5C107.065 344.238 107.065 339.905 107.5 335.5C108.822 335.67 109.989 335.337 111 334.5C111.497 332.19 111.663 329.857 111.5 327.5C112.833 327.5 114.167 327.5 115.5 327.5C115.5 326.167 115.5 324.833 115.5 323.5C116.833 323.5 118.167 323.5 119.5 323.5C119.5 320.833 119.5 318.167 119.5 315.5C120.833 315.5 122.167 315.5 123.5 315.5C123.5 312.833 123.5 310.167 123.5 307.5C126.167 307.5 128.833 307.5 131.5 307.5C131.859 305.234 131.192 303.401 129.5 302C132.079 300.271 132.079 298.438 129.5 296.5C132.768 295.513 136.102 295.18 139.5 295.5C139.34 293.801 139.506 292.134 140 290.5C142.355 289.651 144.188 288.151 145.5 286C145.37 284.941 144.87 284.108 144 283.5C143.501 278.177 143.334 272.844 143.5 267.5C144.833 267.5 146.167 267.5 147.5 267.5C147.5 264.833 147.5 262.167 147.5 259.5C148.833 259.5 150.167 259.5 151.5 259.5C151.5 258.167 151.5 256.833 151.5 255.5C153.57 255.551 155.403 254.885 157 253.5C159.54 254.207 160.707 255.873 160.5 258.5Z" fill="#0C1D32"/>
<path fill-rule="evenodd" clip-rule="evenodd" d="M304.5 330.5C305.5 330.5 306.5 330.5 307.5 330.5C307.108 333.146 307.108 335.646 307.5 338C304.447 338.179 301.447 338.679 298.5 339.5C294.071 342.423 290.071 345.923 286.5 350C288.592 350.953 288.925 352.286 287.5 354C285.122 354.511 282.788 355.178 280.5 356C273.667 362.833 266.833 369.667 260 376.5C259.316 378.479 259.816 380.146 261.5 381.5C259.896 383.179 259.229 385.179 259.5 387.5C258.167 387.5 256.833 387.5 255.5 387.5C255.5 388.833 255.5 390.167 255.5 391.5C253.71 390.987 252.044 390.487 250.5 390C251.406 391.699 251.739 393.533 251.5 395.5C252.833 395.5 254.167 395.5 255.5 395.5C256.144 399.945 254.811 403.611 251.5 406.5C252.628 407.262 253.795 407.929 255 408.5C260.109 407.693 265.276 407.86 270.5 409C265.649 409.174 260.982 409.674 256.5 410.5C255.167 426.5 255.167 442.5 256.5 458.5C266.987 459.494 277.654 459.828 288.5 459.5C289.331 448.341 289.831 437.007 290 425.5C290.333 435.833 290.667 446.167 291 456.5C292.217 454.48 292.383 452.48 291.5 450.5C293.745 448.413 296.412 447.079 299.5 446.5C298.311 445.571 296.978 445.238 295.5 445.5C295.577 442.988 294.577 440.988 292.5 439.5C291.52 436.914 291.187 434.247 291.5 431.5C292.833 431.5 294.167 431.5 295.5 431.5C295.5 428.833 295.5 426.167 295.5 423.5C296.833 423.5 298.167 423.5 299.5 423.5C299.979 419.566 299.312 415.899 297.5 412.5C299.128 398.994 300.128 385.327 300.5 371.5C301.842 373.005 303.508 373.672 305.5 373.5C305.672 371.508 305.005 369.842 303.5 368.5C304.833 367.167 306.167 365.833 307.5 364.5C306.311 363.571 304.978 363.238 303.5 363.5C303.238 362.022 303.571 360.689 304.5 359.5C305.192 360.025 305.692 360.692 306 361.5C308.38 358.071 310.88 357.905 313.5 361C323.833 361.333 334.167 361.667 344.5 362C345 362.5 345.5 363 346 363.5C346.333 395.5 346.667 427.5 347 459.5C348.188 460.563 348.688 461.897 348.5 463.5C349.5 463.5 350.5 463.5 351.5 463.5C351.5 464.833 351.5 466.167 351.5 467.5C346.167 467.5 340.833 467.5 335.5 467.5C335.5 468.833 335.5 470.167 335.5 471.5C331.5 471.5 327.5 471.5 323.5 471.5C323.833 468.5 322.5 467.167 319.5 467.5C319.5 468.833 319.5 470.167 319.5 471.5C318.167 471.5 316.833 471.5 315.5 471.5C315.5 470.167 315.5 468.833 315.5 467.5C312.833 467.5 310.167 467.5 307.5 467.5C307.5 466.167 307.5 464.833 307.5 463.5C306.167 463.5 304.833 463.5 303.5 463.5C303.5 462.167 303.5 460.833 303.5 459.5C301.167 459.5 298.833 459.5 296.5 459.5C296.5 460.833 296.5 462.167 296.5 463.5C292.776 463.137 289.109 462.471 285.5 461.5C284.167 461.833 282.833 462.167 281.5 462.5C283.396 463.466 285.396 463.799 287.5 463.5C287.5 464.833 287.5 466.167 287.5 467.5C284.833 467.5 282.167 467.5 279.5 467.5C279.5 468.833 279.5 470.167 279.5 471.5C270.167 471.5 260.833 471.5 251.5 471.5C251.816 468.022 251.316 464.688 250 461.5C249.692 462.308 249.192 462.975 248.5 463.5C247.571 462.311 247.238 460.978 247.5 459.5C246.167 459.5 244.833 459.5 243.5 459.5C243.5 458.167 243.5 456.833 243.5 455.5C244.5 455.5 245.5 455.5 246.5 455.5C246.5 454.167 246.5 452.833 246.5 451.5C245.5 451.5 244.5 451.5 243.5 451.5C243.5 443.5 243.5 435.5 243.5 427.5C244.5 427.5 245.5 427.5 246.5 427.5C246.986 425.193 246.986 423.027 246.5 421C248.013 418.977 249.346 419.144 250.5 421.5C251.223 419.836 250.89 418.169 249.5 416.5C251.924 414.286 251.257 413.286 247.5 413.5C247.5 410.167 247.5 406.833 247.5 403.5C248.833 403.5 250.167 403.5 251.5 403.5C251.5 402.167 251.5 400.833 251.5 399.5C249.143 399.337 246.81 399.503 244.5 400C243.663 401.011 243.33 402.178 243.5 403.5C242.167 403.5 240.833 403.5 239.5 403.5C239.5 404.833 239.5 406.167 239.5 407.5C237.453 407.511 235.453 407.844 233.5 408.5C231.5 407.5 229.5 406.5 227.5 405.5C227.624 404.893 227.957 404.56 228.5 404.5C248.39 386.279 267.723 367.279 286.5 347.5C292.5 341.833 298.5 336.167 304.5 330.5Z" fill="#0F1E32"/>
<path fill-rule="evenodd" clip-rule="evenodd" d="M593.5 514.5C594.5 515.5 595.5 516.5 596.5 517.5C592.601 519.922 589.601 523.256 587.5 527.5C586.29 527.068 585.29 526.401 584.5 525.5C586.916 524.084 588.916 522.084 590.5 519.5C560.052 495.769 529.385 472.269 498.5 449C496.993 448.163 496.493 446.996 497 445.5C527.833 469 558.667 492.5 589.5 516C591.794 518.216 593.128 517.716 593.5 514.5Z" fill="#283036"/>
<path fill-rule="evenodd" clip-rule="evenodd" d="M603.501 527.5C605.466 527.948 605.799 528.948 604.501 530.5C603.615 529.675 603.282 528.675 603.501 527.5Z" fill="#1B2934"/>
<path fill-rule="evenodd" clip-rule="evenodd" d="M608.5 532.5C609.675 532.281 610.675 532.614 611.5 533.5C609.948 534.798 608.948 534.465 608.5 532.5Z" fill="#252D35"/>
<path fill-rule="evenodd" clip-rule="evenodd" d="M614.5 536.5C615.5 536.5 616.5 536.5 617.5 536.5C617.5 537.5 617.5 538.5 617.5 539.5C616.5 539.5 615.5 539.5 614.5 539.5C614.5 538.5 614.5 537.5 614.5 536.5Z" fill="#2C3237"/>
<path fill-rule="evenodd" clip-rule="evenodd" d="M294 115.116C273.213 115.461 252.88 119.09 233 126C241.119 121.448 249.891 118.424 259.314 116.93C270.815 115.328 282.378 114.724 294 115.116Z" fill="white"/>
<path fill-rule="evenodd" clip-rule="evenodd" d="M343.322 117.36C327.847 118.708 313.376 123.36 299.908 131.318C291.878 131.924 283.838 132.126 275.788 131.924C269.404 131.704 269.404 131.097 275.788 130.104C284.23 129.7 292.672 129.294 301.114 128.89C318.794 117.805 338.09 113.354 359 115.54C353.55 115.752 348.324 116.359 343.322 117.36Z" fill="white"/>
<path fill-rule="evenodd" clip-rule="evenodd" d="M359.648 117.864C353.983 117.864 348.319 117.864 342.654 117.864C347.688 116.862 352.949 116.255 358.434 116.042C337.387 113.855 317.966 118.308 300.17 129.401C291.673 129.806 283.176 130.211 274.679 130.616C268.253 131.609 268.253 132.216 274.679 132.437C272.957 133.592 270.935 133.997 268.61 133.652C266.027 132.281 263.195 132.078 260.113 133.045C246.636 135.938 234.092 141.2 222.484 148.833C220.879 149.824 220.07 151.241 220.057 153.084C209.546 162.186 201.049 172.914 194.566 185.267C168.21 191.246 146.361 204.404 129.019 224.738C128.643 223.234 128.036 223.234 127.198 224.738C121.731 232.035 117.887 240.132 115.667 249.027C116.237 250.197 117.047 250.197 118.095 249.027C116.492 258.325 115.076 267.637 113.846 276.96C92.5664 292.465 78.2031 312.707 70.755 337.684C60.9703 370.194 66.4325 400.152 87.1418 427.555C94.2452 436.096 102.539 442.979 112.025 448.201C119.27 452.431 126.957 455.669 135.088 457.917C138.8 459.899 142.846 461.316 147.227 462.168C158.51 463.514 169.84 464.325 181.214 464.597C186.982 478.772 193.861 492.333 201.849 505.282C204.016 510.636 207.253 515.291 211.56 519.248C210.095 520.827 209.285 522.649 209.132 524.713C210.926 524.395 212.544 524.799 213.988 525.928C211.395 527.108 209.978 529.133 209.739 532C209.104 529.907 207.89 528.289 206.098 527.142C204.951 527.634 204.141 528.444 203.67 529.571C202.68 527.964 201.263 527.155 199.422 527.142C184.943 515.381 174.828 500.605 169.076 482.814C124.576 481.104 89.9822 461.875 65.2927 425.126C48.9375 392.867 45.7014 359.266 55.5821 324.325C64.176 301.558 77.9324 282.531 96.8525 267.244C96.2613 253.014 99.2959 239.655 105.956 227.167C124.484 199.047 149.975 180.019 182.428 170.086C193.917 149.583 210.506 135.01 232.195 126.365C252.37 119.426 273.005 115.782 294.101 115.435C299.04 111.344 304.705 108.511 311.094 106.933C318.976 106.669 326.664 105.253 334.157 102.683C341.835 102.076 349.522 101.874 357.22 102.076C356.954 103.503 357.359 104.717 358.434 105.719C361.891 103.715 364.926 104.121 367.538 106.933C367.912 105.952 368.519 105.142 369.359 104.505C373.28 106.587 376.719 109.016 379.676 111.791C381.952 110.428 384.582 110.428 387.566 111.791C388.156 114.593 388.156 117.224 387.566 119.685C392.145 121.372 392.145 122.587 387.566 123.329C389.018 124.123 389.018 124.73 387.566 125.151C383.267 123.256 379.221 121.03 375.428 118.471C371.373 117.921 367.327 117.314 363.289 116.649C361.801 116.674 360.587 117.078 359.648 117.864Z" fill="white"/>
<path fill-rule="evenodd" clip-rule="evenodd" d="M269 133.169C251.134 135.082 235.134 141.359 221 152C221.013 150.215 221.812 148.841 223.4 147.881C234.876 140.484 247.276 135.384 260.6 132.581C263.647 131.644 266.446 131.841 269 133.169Z" fill="white"/>
<path fill-rule="evenodd" clip-rule="evenodd" d="M399.307 299.913C394.871 303.942 390.436 307.971 386 312C390.718 305.463 396.162 299.42 402.332 293.87C405.644 287.65 408.668 281.204 411.405 274.53C410.275 270.464 410.678 266.435 412.615 262.443C417.035 259.077 421.067 255.249 424.712 250.961C427.939 249.752 431.164 248.543 434.39 247.335C434.096 243.45 436.112 240.63 440.439 238.874C439.777 237.756 438.972 236.749 438.02 235.852C436.662 237.218 435.048 238.024 433.18 238.27C442.181 228.735 451.455 219.468 461.005 210.47C455.813 205.889 450.773 201.054 445.883 195.965C445.051 194.96 445.253 194.155 446.488 193.548C467.772 186.974 488.943 180.124 510 173C502.749 195.124 494.28 216.88 484.595 238.27C480.466 234.085 475.829 231.063 470.683 229.204C446.279 252.177 422.486 275.746 399.307 299.913Z" fill="white"/>
<path fill-rule="evenodd" clip-rule="evenodd" d="M740 367C734.852 347.636 728.587 328.565 721.207 309.786C719.981 310.805 718.566 311.21 716.963 311.003C717.442 307.323 716.23 306.106 713.326 307.351C711.066 304.375 708.641 304.171 706.051 306.742C706.889 308.041 707.495 309.462 707.87 311.003C709.841 311.434 712.064 311.434 714.538 311.003C714.538 314.25 714.538 317.495 714.538 320.742C713.263 320.56 712.05 320.762 710.901 321.35C711.916 322.581 712.319 324.002 712.113 325.611C713.389 325.43 714.601 325.632 715.751 326.22C714.56 329.553 713.753 333.003 713.326 336.567C705.092 309.483 692.361 284.731 675.133 262.31C661.507 246.436 644.33 236.698 623.603 233.094C621.138 222.79 618.107 212.646 614.51 202.661C608.452 190.495 600.166 180.148 589.654 171.619C541.195 132.681 485.825 115.233 423.547 119.274C414.269 121.699 405.378 125.148 396.873 129.622C385.304 123.856 373.18 119.799 360.499 117.448C361.437 116.661 362.649 116.255 364.136 116.231C368.169 116.897 372.211 117.506 376.261 118.057C380.05 120.622 384.091 122.853 388.385 124.752C389.835 124.331 389.835 123.722 388.385 122.926C392.959 122.183 392.959 120.965 388.385 119.274C388.975 116.807 388.975 114.17 388.385 111.362C385.405 109.995 382.778 109.995 380.504 111.362C377.551 108.58 374.116 106.146 370.198 104.058C369.359 104.697 368.753 105.509 368.38 106.492C365.77 103.673 362.739 103.267 359.286 105.275C358.212 104.271 357.808 103.054 358.074 101.623C350.384 101.421 342.706 101.623 335.037 102.232C327.552 104.808 319.873 106.227 312 106.492C331.203 98.9706 351.007 97.55 371.411 102.232C379.458 104.384 387.339 107.021 395.054 110.144C411.605 101.749 429.186 98.0966 447.796 99.1885C516.44 101.909 574.437 127.88 621.785 177.097C630.36 189.122 635.614 202.513 637.547 217.269C662.492 224.308 682.295 238.51 696.958 259.875C718.293 292.676 732.64 328.385 740 367Z" fill="white"/>
<path fill-rule="evenodd" clip-rule="evenodd" d="M129 224.158C124.173 231.85 120.628 240.164 118.364 249.099C117.344 250.3 116.555 250.3 116 249.099C118.162 239.966 121.904 231.652 127.227 224.158C128.043 222.614 128.634 222.614 129 224.158Z" fill="white"/>
<path fill-rule="evenodd" clip-rule="evenodd" d="M465.572 264C466.382 318.399 467.19 372.797 468 427.196C455.718 436.745 443.173 446.012 430.365 455C429.152 401.612 428.748 348.019 429.151 294.222C440.88 283.562 453.02 273.488 465.572 264Z" fill="white"/>
<path fill-rule="evenodd" clip-rule="evenodd" d="M385.499 312.144C378.257 320.176 370.587 327.831 362.487 335.108C345.348 319.415 328.393 303.502 311.619 287.367C308.124 287.916 305.299 289.729 303.142 292.806C297.086 298.446 291.03 304.086 284.974 309.727C275.595 317.267 266.713 325.526 258.329 334.504C258.606 334.986 259.01 335.186 259.541 335.108C236.799 359.013 213.384 381.977 189.295 404C185.168 397.377 181.737 390.527 179 383.453C222.034 342.52 265.433 302.031 309.197 261.986C311.364 261.357 313.383 261.76 315.253 263.194C330.451 277.158 345.994 290.654 361.882 303.683C385.327 281.695 408.944 259.939 432.733 238.417C434.603 238.172 436.219 237.366 437.578 236C438.531 236.897 439.338 237.904 440 239.022C435.668 240.778 433.65 243.597 433.944 247.482C430.714 248.691 427.485 249.899 424.255 251.108C420.606 255.396 416.569 259.224 412.144 262.59C410.205 266.581 409.802 270.61 410.933 274.676C408.193 281.349 405.165 287.795 401.849 294.014C395.672 299.564 390.222 305.608 385.499 312.144Z" fill="white"/>
<path fill-rule="evenodd" clip-rule="evenodd" d="M467.939 427C467.293 372.474 466.647 317.949 466 263.423C466.274 262.467 466.759 261.659 467.454 261C467.939 316.331 468.101 371.665 467.939 427Z" fill="white"/>
<path fill-rule="evenodd" clip-rule="evenodd" d="M597.217 313C604.129 315.745 610.824 318.993 617.304 322.74C616.008 326.651 615.196 330.708 614.87 334.915C620.28 338.742 625.353 343.003 630.087 347.699C633.701 346.898 636.947 345.071 639.826 342.22C646.258 346.79 650.925 352.472 653.826 359.265C651.369 361.517 649.138 363.952 647.13 366.57C651.4 372.67 655.052 379.162 658.087 386.05C662.091 385.815 666.149 385.815 670.261 386.05C672.642 392.028 674.671 398.115 676.348 404.312C675.942 405.124 675.536 405.935 675.13 406.747C671.477 408.017 668.23 409.843 665.391 412.226C668.023 419.891 669.241 427.805 669.043 435.967C672.718 436.216 676.37 436.621 680 437.185C679.479 444.135 678.668 451.035 677.565 457.882C673.587 459.084 669.528 459.489 665.391 459.1C664.125 466.596 662.097 473.901 659.304 481.015C662.177 483.879 665.424 486.314 669.043 488.32C665.953 494.705 662.706 500.996 659.304 507.191C655.444 505.683 651.386 504.871 647.13 504.756C642.666 510.031 638.203 515.308 633.739 520.583C636.823 523.589 638.649 527.038 639.217 530.932C637.862 533.159 636.036 534.174 633.739 533.976C626.435 528.294 619.13 522.613 611.826 516.931C641.522 491.582 654.305 459.319 650.174 420.14C644.305 390.327 629.087 366.586 604.522 348.916C592.668 342.273 580.494 336.591 568 331.871C568.968 326.596 570.389 321.522 572.261 316.652C578.315 318.671 584.402 320.699 590.522 322.74C594.241 320.595 596.472 317.349 597.217 313Z" fill="white"/>
<path fill-rule="evenodd" clip-rule="evenodd" d="M285 310C283.773 311.586 282.545 313.173 281.318 314.759C273.955 321.501 266.591 328.242 259.227 334.984C258.69 335.061 258.28 334.864 258 334.389C266.495 325.552 275.496 317.423 285 310Z" fill="white"/>
<path fill-rule="evenodd" clip-rule="evenodd" d="M577.8 369C578.95 369.549 579.95 370.356 580.8 371.424C584.173 380.234 587.173 389.122 589.8 398.091C599.009 397.89 608.209 398.091 617.4 398.697C618.749 398.999 619.949 399.605 621 400.515C612.654 406.519 604.654 412.984 597 419.909C601.522 428.935 604.321 438.228 605.4 447.788C597.63 444.064 590.43 439.418 583.8 433.848C581.4 433.04 579 433.04 576.6 433.848C569.512 439.349 562.111 444.4 554.4 449C554.881 438.433 557.482 428.332 562.2 418.697C553.294 413.136 544.894 406.873 537 399.909C547.793 399.303 558.593 399.102 569.4 399.303C572.342 389.32 575.142 379.219 577.8 369Z" fill="white"/>
<path fill-rule="evenodd" clip-rule="evenodd" d="M70.7116 338C61.7374 383.351 75.4998 420.018 112 448C102.51 442.802 94.212 435.952 87.1055 427.451C66.3872 400.175 60.9226 370.358 70.7116 338Z" fill="white"/>
<path fill-rule="evenodd" clip-rule="evenodd" d="M359 355C360.21 392.716 360.613 430.642 360.212 468.777C372.737 468.777 385.263 468.777 397.788 468.777C397.387 430.642 397.79 392.716 399 355C399 393.333 399 431.667 399 470C385.667 470 372.333 470 359 470C359 431.667 359 393.333 359 355Z" fill="white"/>
<path fill-rule="evenodd" clip-rule="evenodd" d="M428 294C428.5 294 429 294 429.5 294C429.002 348.117 429.501 402.026 431 455.731C430.487 456.75 429.488 457.156 428 456.947C428 402.631 428 348.316 428 294Z" fill="white"/>
<path fill-rule="evenodd" clip-rule="evenodd" d="M290 355C303.333 355 316.667 355 330 355C330 393.334 330 431.666 330 470C316.667 470 303.333 470 290 470C290 431.666 290 393.334 290 355Z" fill="white"/>
<path fill-rule="evenodd" clip-rule="evenodd" d="M328 357C328 394.334 328 431.666 328 469C316 469 304 469 292 469C292 431.666 292 394.334 292 357C304 357 316 357 328 357Z" fill="white"/>
<path fill-rule="evenodd" clip-rule="evenodd" d="M328 356.373C316.112 356.373 304.224 356.373 292.336 356.373C292.336 393.916 292.336 431.457 292.336 469C291.149 431.259 290.754 393.309 291.147 355.149C303.646 354.748 315.93 355.157 328 356.373Z" fill="white"/>
<path fill-rule="evenodd" clip-rule="evenodd" d="M359 356.359C359 355.956 359 355.551 359 355.148C372.55 354.751 385.884 355.154 399 356.359C397.79 393.699 397.387 431.246 397.788 469C385.263 469 372.737 469 360.212 469C360.613 431.246 360.21 393.699 359 356.359Z" fill="white"/>
<path fill-rule="evenodd" clip-rule="evenodd" d="M633 537.7C632.545 541.588 630.914 542.193 628.11 539.514C590.417 511.1 552.724 482.686 515.031 454.273C514.411 456.082 515.022 457.493 516.865 458.505C554.621 486.639 592.111 515.053 629.333 543.745C627.396 546.87 624.951 549.288 621.998 551C580.26 524.916 538.696 498.517 497.305 471.805C484.712 461.845 480.434 449.15 484.469 433.718C486.6 428.297 489.045 423.058 491.804 418C495.661 428.68 501.977 437.748 510.752 445.205C551.002 476.761 591.751 507.592 633 537.7Z" fill="white"/>
<path fill-rule="evenodd" clip-rule="evenodd" d="M223.212 411C236.142 411 249.07 411 262 411C262 431.282 262 451.566 262 471.849C248.853 472.256 235.923 471.841 223.212 470.607C221.596 450.738 221.596 430.869 223.212 411Z" fill="white"/>
<path fill-rule="evenodd" clip-rule="evenodd" d="M224 414C235.667 414 247.333 414 259 414C259 432.333 259 450.667 259 469C247.333 469 235.667 469 224 469C224 450.667 224 432.333 224 414Z" fill="white"/>
<path fill-rule="evenodd" clip-rule="evenodd" d="M224 414.217C224 413.812 224 413.405 224 413C236.333 413 248.667 413 261 413C261 431.666 261 450.334 261 469C260.589 469 260.177 469 259.767 469C259.767 450.739 259.767 432.478 259.767 414.217C247.844 414.217 235.923 414.217 224 414.217Z" fill="white"/>
<path fill-rule="evenodd" clip-rule="evenodd" d="M223.407 413C223.407 413.403 223.407 413.807 223.407 414.21C223.407 432.354 223.407 450.498 223.407 468.643C235.521 468.643 247.633 468.643 259.747 468.643C260.164 468.643 260.583 468.643 261 468.643C248.277 469.845 235.329 470.249 222.154 469.853C221.741 450.69 222.159 431.738 223.407 413Z" fill="white"/>
<path fill-rule="evenodd" clip-rule="evenodd" d="M479.505 517C494.904 527.927 511.914 535.143 530.533 538.651C539.848 539.476 549.162 539.476 558.477 538.651C568.002 537.557 577.317 535.908 586.421 533.702C591.28 537.001 596.14 540.3 601 543.599C598.306 545.168 595.877 547.024 593.71 549.167C595.832 552.59 596.236 556.096 594.925 559.683C589.272 561.671 583.603 563.527 577.916 565.25C576.701 564.838 575.486 564.425 574.271 564.013C573.404 561.154 572.189 558.473 570.626 555.971C563.369 556.173 556.08 556.379 548.757 556.59C548.616 560.747 548.211 564.87 547.542 568.962C540.209 569.135 532.919 568.723 525.673 567.724C525.673 563.601 525.673 559.476 525.673 555.353C518.931 554.803 512.451 553.154 506.234 550.404C503.804 553.703 501.374 557.002 498.944 560.301C492.059 557.698 485.579 554.399 479.505 550.404C481.99 547.024 483.004 543.312 482.542 539.269C477.923 537.025 474.075 533.932 471 529.99C473.702 525.504 476.537 521.174 479.505 517Z" fill="white"/>
<path fill-rule="evenodd" clip-rule="evenodd" d="M202.434 505C227.507 528.929 257.527 541.508 292.494 542.739C309.522 541.157 326.56 540.142 343.609 539.696C354.541 540.502 364.684 543.748 374.034 549.435C397.502 568.443 417.988 590.153 435.494 614.565C454.759 639.292 471.594 665.669 486 693.696C481.74 696.688 477.076 699.123 472.004 701C470.47 700.685 469.253 699.873 468.353 698.565C440.618 648.082 405.528 603.241 363.081 564.043C355.599 559.451 347.486 557.22 338.74 557.348C322.365 559.326 305.936 560.543 289.451 561C270.048 561.677 251.59 557.821 234.077 549.435C223.469 544.137 213.328 538.253 203.651 531.783C202.434 530.16 201.217 528.536 200 526.913C201.846 526.926 203.266 527.737 204.26 529.348C204.732 528.218 205.544 527.406 206.694 526.913C208.491 528.062 209.708 529.685 210.345 531.783C210.584 528.908 212.005 526.879 214.604 525.696C213.157 524.565 211.535 524.159 209.736 524.478C209.89 522.409 210.701 520.583 212.17 519C207.852 515.034 204.606 510.367 202.434 505Z" fill="white"/>
<path fill-rule="evenodd" clip-rule="evenodd" d="M636.04 542C648.663 551.474 661.135 561.208 673.453 571.203C677.497 582.903 673.613 587.162 661.8 583.979C658.539 579.529 654.859 575.472 650.76 571.811C642.138 565.918 633.551 560.036 625 554.168C627.577 549.004 631.257 544.947 636.04 542Z" fill="white"/>
<path fill-rule="evenodd" clip-rule="evenodd" d="M741.045 366.828C745.452 383.377 748.084 400.36 748.945 417.778C752.84 456.674 745.953 493.471 728.285 528.168C720.588 539.086 711.27 548.387 700.333 556.069C699.96 575.754 694.694 593.95 684.534 610.658C660.13 641.347 628.33 659.34 589.133 664.64C570.969 667.629 552.74 668.236 534.445 666.46C534.445 669.29 534.445 672.121 534.445 674.951C534.445 682.634 534.445 690.318 534.445 698C532.419 698 530.394 698 528.368 698C524.668 697.99 521.022 697.586 517.431 696.787C516.519 679.809 515.71 662.825 515 645.837C552.234 651.569 588.693 648.537 624.377 636.739C663.486 618.714 683.134 588.184 683.319 545.152C702.53 535.077 715.291 519.712 721.601 499.054C725.238 487.169 727.871 475.038 729.5 462.662C730.311 444.466 730.311 426.269 729.5 408.073C726.219 383.81 721.154 359.953 714.309 336.501C714.737 332.949 715.546 329.512 716.739 326.19C715.587 325.604 714.372 325.403 713.093 325.584C713.3 323.98 712.895 322.564 711.878 321.338C713.03 320.752 714.246 320.551 715.524 320.731C715.524 317.496 715.524 314.262 715.524 311.027C713.044 311.456 710.816 311.456 708.84 311.027C708.464 309.491 707.857 308.075 707.017 306.781C709.613 304.219 712.043 304.421 714.309 307.387C717.219 306.146 718.435 307.359 717.955 311.027C719.561 311.233 720.979 310.829 722.208 309.814C729.606 328.528 735.885 347.532 741.045 366.828Z" fill="white"/>
<path fill-rule="evenodd" clip-rule="evenodd" d="M534.536 676C535.832 683.735 536.267 691.694 535.843 699.876C532.922 700.228 530.307 699.83 528 698.682C530.179 698.682 532.357 698.682 534.536 698.682C534.536 691.122 534.536 683.56 534.536 676Z" fill="white"/>
<path fill-rule="evenodd" clip-rule="evenodd" d="M811 116.092C897.009 112.681 983.61 111.542 1070.8 112.674C1070.8 128.627 1070.8 144.578 1070.8 160.531C1037.75 160.531 1004.71 160.531 971.663 160.531C1002.95 157.133 1034.85 155.995 1067.38 157.113C1067.38 143.439 1067.38 129.766 1067.38 116.092C981.918 116.092 896.459 116.092 811 116.092Z" fill="white"/>
<path fill-rule="evenodd" clip-rule="evenodd" d="M2034.77 112.673C2054.15 112.673 2073.51 112.673 2092.89 112.673C2092.89 202.689 2092.89 292.708 2092.89 382.724C2139.6 382.724 2186.32 382.724 2233.04 382.724C2233.04 398.677 2233.04 414.628 2233.04 430.581C2166.95 430.581 2100.86 430.581 2034.77 430.581C2034.77 324.612 2034.77 218.643 2034.77 112.673Z" fill="white"/>
<path fill-rule="evenodd" clip-rule="evenodd" d="M811 116.092C896.459 116.092 981.918 116.092 1067.38 116.092C1067.38 129.765 1067.38 143.439 1067.38 157.112C1034.85 155.994 1002.95 157.133 971.663 160.531C971.663 250.546 971.663 340.565 971.663 430.581C952.291 430.581 932.923 430.581 913.551 430.581C913.551 340.565 913.551 250.546 913.551 160.531C879.367 160.531 845.184 160.531 811 160.531C811 145.719 811 130.904 811 116.092Z" fill="white"/>
<path fill-rule="evenodd" clip-rule="evenodd" d="M2427.89 112.673C2447.39 111.548 2466.76 112.69 2486 116.091C2527.02 219.781 2568.04 323.473 2609.06 427.162C2589.69 431.719 2570.32 431.719 2550.95 427.162C2541.95 405.777 2533.97 384.129 2527.02 362.213C2480.24 361.075 2433.53 362.217 2386.86 365.632C2378.07 386.911 2368.95 407.992 2359.52 428.872C2341.18 431.705 2322.95 431.138 2304.82 427.162C2346.54 322.519 2387.56 217.692 2427.89 112.673Z" fill="white"/>
<path fill-rule="evenodd" clip-rule="evenodd" d="M2455.23 177.623C2472.64 221.049 2489.73 264.917 2506.51 309.23C2473.48 310.939 2440.44 311.506 2407.38 310.939C2422.35 266.168 2438.3 221.73 2455.23 177.623Z" fill="#0C1C31"/>
<path fill-rule="evenodd" clip-rule="evenodd" d="M1163.09 112.673C1182.6 111.548 1201.97 112.69 1221.2 116.091C1245.59 193.247 1268.95 270.731 1291.28 348.54C1318.06 270.468 1344.84 192.417 1371.61 114.382C1385.43 111.555 1399.1 112.126 1412.63 116.091C1436.57 191.894 1462.21 267.098 1489.55 341.703C1512.9 266.52 1536.26 191.316 1559.62 116.091C1578.99 111.535 1598.36 111.535 1617.73 116.091C1583.29 220.546 1550.25 325.377 1518.6 430.581C1501.51 430.581 1484.42 430.581 1467.33 430.581C1468.14 426.168 1467 422.749 1463.91 420.326C1441.79 348.861 1417.3 278.217 1390.41 208.387C1365.32 281.345 1340.26 354.269 1315.21 427.162C1298.12 431.719 1281.03 431.719 1263.93 427.162C1229.24 322.537 1195.63 217.706 1163.09 112.673Z" fill="white"/>
<path fill-rule="evenodd" clip-rule="evenodd" d="M1163.09 112.673C1195.63 217.706 1229.24 322.537 1263.93 427.163C1281.02 431.719 1298.12 431.719 1315.21 427.163C1340.25 354.27 1365.32 281.346 1390.41 208.388C1417.3 278.218 1441.79 348.862 1463.91 420.326C1464.04 426.681 1461.19 431.237 1455.36 433.999C1449.11 388.484 1446.25 388.484 1446.82 433.999C1442.23 428.855 1436.53 426.575 1429.72 427.163C1429.72 422.606 1429.72 418.046 1429.72 413.489C1425.17 413.489 1420.61 413.489 1416.05 413.489C1415.84 385.336 1411.28 357.989 1402.38 331.449C1393.26 331.449 1384.15 331.449 1375.03 331.449C1375.03 340.565 1375.03 349.679 1375.03 358.796C1370.47 358.796 1365.91 358.796 1361.36 358.796C1361.36 363.352 1361.36 367.912 1361.36 372.469C1365.91 372.469 1370.47 372.469 1375.03 372.469C1375.03 377.026 1375.03 381.586 1375.03 386.142C1367.05 386.142 1359.08 386.142 1351.1 386.142C1350.84 395.392 1349.71 404.509 1347.68 413.489C1343.13 413.489 1338.57 413.489 1334.01 413.489C1334.01 421.464 1334.01 429.443 1334.01 437.418C1327.08 436.864 1320.24 437.435 1313.5 439.127C1316.51 443.762 1317.65 448.89 1316.92 454.51C1313.5 454.51 1310.08 454.51 1306.66 454.51C1307.34 447.417 1307.91 440.58 1308.37 433.999C1291.39 440.248 1274.3 442.528 1257.1 440.836C1256.83 430.253 1253.98 421.136 1248.55 413.489C1245.37 417.554 1244.24 422.11 1245.13 427.163C1238.29 427.163 1231.46 427.163 1224.62 427.163C1224.62 413.489 1224.62 399.816 1224.62 386.142C1220.06 386.142 1215.5 386.142 1210.95 386.142C1210.95 377.026 1210.95 367.912 1210.95 358.796C1206.39 358.796 1201.83 358.796 1197.27 358.796C1196.78 330.584 1192.23 303.237 1183.6 276.755C1179.04 276.755 1174.48 276.755 1169.93 276.755C1172.21 263.081 1174.48 249.408 1176.76 235.734C1172.21 235.734 1167.65 235.734 1163.09 235.734C1157.7 219.405 1154.85 202.313 1154.55 184.459C1151.09 181.598 1147.1 180.46 1142.58 181.041C1138.81 158.435 1136.54 135.645 1135.74 112.673C1144.34 111.805 1152.32 108.958 1159.67 104.128C1152.51 102.227 1151.94 100.518 1157.96 99C1166.56 103.352 1175.11 103.352 1183.6 99C1195.29 104.647 1207.82 107.495 1221.2 107.546C1201.21 108.137 1181.84 109.846 1163.09 112.673Z" fill="#0C1B30"/>
<path fill-rule="evenodd" clip-rule="evenodd" d="M1768.14 112.673C1787.65 111.548 1807.01 112.69 1826.25 116.091C1868.22 219.398 1909.24 323.09 1949.31 427.162C1930.08 430.564 1910.71 431.705 1891.2 430.581C1884.93 407.773 1876.95 385.554 1867.27 363.923C1820.51 361.075 1773.79 361.646 1727.12 365.632C1720.13 387.168 1712.16 408.249 1703.19 428.872C1685 430.577 1666.77 431.148 1648.5 430.581C1689.04 324.916 1728.92 218.947 1768.14 112.673Z" fill="white"/>
<path fill-rule="evenodd" clip-rule="evenodd" d="M1846.76 310.939C1813.1 312.056 1780.06 310.918 1747.63 307.52C1763.16 263.916 1779.68 220.615 1797.2 177.623C1814.75 221.747 1831.27 266.185 1846.76 310.939Z" fill="#0C1C30"/>
<path fill-rule="evenodd" clip-rule="evenodd" d="M1747.63 307.52C1780.06 310.918 1813.1 312.056 1846.76 310.938C1813.12 315.461 1778.94 315.461 1744.21 310.938C1744.64 308.863 1745.78 307.725 1747.63 307.52Z" fill="white"/>
<path fill-rule="evenodd" clip-rule="evenodd" d="M2038.19 116.092C2054.14 116.092 2070.09 116.092 2086.05 116.092C2086.05 206.108 2086.05 296.127 2086.05 386.142C2133.91 386.142 2181.76 386.142 2229.62 386.142C2229.62 399.816 2229.62 413.489 2229.62 427.163C2165.81 427.163 2102 427.163 2038.19 427.163C2038.19 323.474 2038.19 219.781 2038.19 116.092Z" fill="white"/>
<path fill-rule="evenodd" clip-rule="evenodd" d="M2151 539.969C2191.41 536.568 2232.43 535.429 2274.06 536.551C2275.07 544.191 2273.93 551.027 2270.64 557.061C2270.64 551.362 2270.64 545.667 2270.64 539.969C2230.76 539.969 2190.88 539.969 2151 539.969Z" fill="white"/>
<path fill-rule="evenodd" clip-rule="evenodd" d="M2151 539.969C2190.88 539.969 2230.76 539.969 2270.64 539.969C2270.64 545.667 2270.64 551.362 2270.64 557.061C2254.69 557.061 2238.74 557.061 2222.78 557.061C2236.92 553.693 2251.73 552.555 2267.22 553.642C2267.22 550.224 2267.22 546.805 2267.22 543.387C2229.62 543.387 2192.02 543.387 2154.42 543.387C2154.42 546.805 2154.42 550.224 2154.42 553.642C2169.91 552.555 2184.72 553.693 2198.86 557.061C2182.9 557.061 2166.95 557.061 2151 557.061C2151 551.362 2151 545.667 2151 539.969Z" fill="white"/>
<path fill-rule="evenodd" clip-rule="evenodd" d="M2222.78 557.061C2222.78 603.779 2222.78 650.495 2222.78 697.214C2215.95 697.214 2209.11 697.214 2202.27 697.214C2203.4 649.89 2202.26 603.174 2198.85 557.061C2184.72 553.694 2169.91 552.555 2154.42 553.642C2154.42 550.224 2154.42 546.806 2154.42 543.387C2192.02 543.387 2229.62 543.387 2267.22 543.387C2267.22 546.806 2267.22 550.224 2267.22 553.642C2251.73 552.555 2236.91 553.694 2222.78 557.061Z" fill="white"/>
<path fill-rule="evenodd" clip-rule="evenodd" d="M1111.82 539.969C1104.98 539.969 1098.14 539.969 1091.31 539.969C1091.31 592.383 1091.31 644.8 1091.31 697.214C1098.14 697.214 1104.98 697.214 1111.82 697.214C1104.61 700.523 1096.63 701.665 1087.89 700.632C1087.89 645.938 1087.89 591.245 1087.89 536.551C1096.63 535.519 1104.61 536.66 1111.82 539.969Z" fill="white"/>
<path fill-rule="evenodd" clip-rule="evenodd" d="M954.57 539.969C961.407 539.969 968.244 539.969 975.08 539.969C975.08 592.382 975.08 644.8 975.08 697.213C968.244 697.213 961.407 697.213 954.57 697.213C954.57 644.8 954.57 592.382 954.57 539.969Z" fill="white"/>
<path fill-rule="evenodd" clip-rule="evenodd" d="M1200.69 539.969C1200.69 538.83 1200.69 537.689 1200.69 536.55C1208.67 536.55 1216.65 536.55 1224.62 536.55C1225.75 590.704 1224.61 644.259 1221.2 697.213C1221.2 644.8 1221.2 592.382 1221.2 539.969C1214.37 539.969 1207.53 539.969 1200.69 539.969Z" fill="white"/>
<path fill-rule="evenodd" clip-rule="evenodd" d="M1754.47 622.009C1773.84 622.009 1793.21 622.009 1812.58 622.009C1812.58 641.381 1812.58 660.749 1812.58 680.121C1763.38 712.38 1719.52 706.685 1680.97 663.029C1671.2 636.079 1670.06 608.732 1677.55 580.989C1707.93 534.807 1748.38 523.981 1798.9 548.514C1816.83 556.653 1816.83 565.199 1798.9 574.152C1774.31 555.512 1748.1 552.664 1720.28 565.606C1697.59 585.128 1690.19 609.624 1698.06 639.101C1709.97 672.126 1733.33 685.228 1768.14 678.412C1790.24 676.532 1798.22 664.568 1792.07 642.519C1779.53 642.519 1767 642.519 1754.47 642.519C1754.47 635.683 1754.47 628.846 1754.47 622.009Z" fill="white"/>
<path fill-rule="evenodd" clip-rule="evenodd" d="M1200.69 536.55C1200.69 537.689 1200.69 538.83 1200.69 539.969C1201.27 579.864 1200.69 619.746 1198.98 659.611C1196.53 657.752 1194.82 655.472 1193.86 652.775C1196.14 614.034 1198.41 575.291 1200.69 536.55Z" fill="white"/>
<path fill-rule="evenodd" clip-rule="evenodd" d="M2222.78 557.061C2238.74 557.061 2254.69 557.061 2270.64 557.061C2256.51 560.428 2241.69 561.566 2226.2 560.479C2227.33 607.803 2226.19 654.518 2222.78 700.632C2222.78 699.493 2222.78 698.352 2222.78 697.213C2222.78 650.495 2222.78 603.779 2222.78 557.061Z" fill="white"/>
<path fill-rule="evenodd" clip-rule="evenodd" d="M2034.77 536.55C2034.77 537.689 2034.77 538.83 2034.77 539.969C2034.77 563.897 2034.77 587.826 2034.77 611.754C2004.52 612.869 1974.9 611.73 1945.9 608.336C1974.38 608.336 2002.87 608.336 2031.36 608.336C2030.24 583.768 2031.39 559.84 2034.77 536.55Z" fill="white"/>
<path fill-rule="evenodd" clip-rule="evenodd" d="M1111.82 539.969C1139.05 577.489 1166.4 615.091 1193.86 652.775C1194.82 655.472 1196.53 657.752 1198.99 659.611C1200.69 619.746 1201.27 579.864 1200.69 539.969C1207.53 539.969 1214.37 539.969 1221.2 539.969C1221.2 592.382 1221.2 644.8 1221.2 697.213C1212.17 702.269 1203.62 701.131 1195.57 693.795C1171.53 657.031 1145.89 621.709 1118.65 587.826C1117.69 585.129 1115.98 582.849 1113.53 580.989C1111.82 619.712 1111.25 658.456 1111.82 697.213C1104.98 697.213 1098.14 697.213 1091.31 697.213C1091.31 644.8 1091.31 592.382 1091.31 539.969C1098.14 539.969 1104.98 539.969 1111.82 539.969Z" fill="white"/>
<path fill-rule="evenodd" clip-rule="evenodd" d="M954.57 539.969C961.773 536.66 969.751 535.519 978.499 536.551C978.499 591.245 978.499 645.938 978.499 700.632C969.751 701.665 961.773 700.523 954.57 697.214C961.407 697.214 968.244 697.214 975.08 697.214C975.08 644.8 975.08 592.383 975.08 539.969C968.244 539.969 961.407 539.969 954.57 539.969Z" fill="white"/>
<path fill-rule="evenodd" clip-rule="evenodd" d="M2034.77 539.969C2034.77 538.83 2034.77 537.689 2034.77 536.55C2042.75 536.55 2050.73 536.55 2058.7 536.55C2059.83 590.704 2058.69 644.259 2055.28 697.213C2055.28 644.8 2055.28 592.382 2055.28 539.969C2048.45 539.969 2041.61 539.969 2034.77 539.969Z" fill="white"/>
<path fill-rule="evenodd" clip-rule="evenodd" d="M1118.65 587.826C1116.37 624.29 1114.1 660.75 1111.82 697.214C1111.24 658.456 1111.82 619.712 1113.52 580.989C1115.98 582.849 1117.69 585.129 1118.65 587.826Z" fill="white"/>
<path fill-rule="evenodd" clip-rule="evenodd" d="M1368.19 536.55C1395.39 533.938 1419.31 541.346 1439.98 558.769C1435.79 564.112 1430.66 568.102 1424.6 570.734C1407.63 558.585 1388.83 554.596 1368.19 558.769C1348.47 568.163 1346.19 580.695 1361.36 596.371C1384.18 605.492 1406.97 614.608 1429.72 623.718C1451.02 663.187 1439.62 688.257 1395.54 698.922C1367.59 704.228 1343.66 696.82 1323.75 676.703C1332.72 659.45 1342.98 658.88 1354.52 674.994C1376.48 683.83 1396.42 680.983 1414.34 666.448C1417.4 656.309 1415.69 647.192 1409.21 639.101C1392.51 631.827 1375.42 625.557 1357.94 620.3C1328.07 607.057 1320.67 585.976 1335.72 557.06C1345.44 547.957 1356.26 541.12 1368.19 536.55Z" fill="white"/>
<path fill-rule="evenodd" clip-rule="evenodd" d="M1545.95 536.55C1553.92 536.55 1561.9 536.55 1569.88 536.55C1569.88 591.244 1569.88 645.938 1569.88 700.632C1561.9 700.632 1553.92 700.632 1545.95 700.632C1545.95 645.938 1545.95 591.244 1545.95 536.55Z" fill="white"/>
<path fill-rule="evenodd" clip-rule="evenodd" d="M1549.37 539.969C1555.06 539.969 1560.76 539.969 1566.46 539.969C1566.46 591.244 1566.46 642.52 1566.46 693.795C1560.76 693.795 1555.06 693.795 1549.37 693.795C1549.37 642.52 1549.37 591.244 1549.37 539.969Z" fill="white"/>
<path fill-rule="evenodd" clip-rule="evenodd" d="M1945.9 632.264C1974.9 628.869 2004.52 627.731 2034.77 628.846C2034.77 651.636 2034.77 674.423 2034.77 697.213C2041.61 697.213 2048.45 697.213 2055.28 697.213C2048.08 700.522 2040.1 701.663 2031.36 700.631C2031.36 677.841 2031.36 655.054 2031.36 632.264C2002.87 632.264 1974.38 632.264 1945.9 632.264Z" fill="white"/>
<path fill-rule="evenodd" clip-rule="evenodd" d="M1754.47 622.01C1774.33 618.625 1794.84 617.487 1816 618.591C1817.1 639.751 1815.97 660.261 1812.58 680.122C1812.58 660.75 1812.58 641.381 1812.58 622.01C1793.21 622.01 1773.84 622.01 1754.47 622.01Z" fill="white"/>
<path fill-rule="evenodd" clip-rule="evenodd" d="M2198.86 557.061C2202.26 603.174 2203.4 649.89 2202.27 697.213C2209.11 697.213 2215.95 697.213 2222.78 697.213C2222.78 698.352 2222.78 699.493 2222.78 700.632C2214.81 700.632 2206.83 700.632 2198.86 700.632C2198.86 652.775 2198.86 604.918 2198.86 557.061Z" fill="white"/>
<path fill-rule="evenodd" clip-rule="evenodd" d="M1945.9 608.336C1974.9 611.73 2004.52 612.869 2034.77 611.754C2034.77 587.826 2034.77 563.897 2034.77 539.969C2041.61 539.969 2048.45 539.969 2055.28 539.969C2055.28 592.382 2055.28 644.8 2055.28 697.213C2048.45 697.213 2041.61 697.213 2034.77 697.213C2034.77 674.423 2034.77 651.636 2034.77 628.846C2004.52 627.732 1974.9 628.87 1945.9 632.264C1945.9 655.055 1945.9 677.841 1945.9 700.632C1937.92 700.632 1929.94 700.632 1921.97 700.632C1921.97 645.938 1921.97 591.244 1921.97 536.55C1929.94 536.55 1937.92 536.55 1945.9 536.55C1945.9 560.479 1945.9 584.407 1945.9 608.336Z" fill="white"/>
<path fill-rule="evenodd" clip-rule="evenodd" d="M2390.28 536.55C2417.55 532.352 2441.47 539.189 2462.07 557.06C2458.65 562.758 2454.09 567.315 2448.4 570.733C2431.72 559.282 2413.49 555.293 2393.7 558.769C2374.21 568.45 2371.94 580.982 2386.87 596.371C2407.11 605.016 2427.62 612.995 2448.4 620.3C2470.92 642.977 2470.92 665.767 2448.4 688.667C2412.23 707.618 2379.19 703.629 2349.26 676.703C2351.9 670.645 2356.45 667.227 2362.94 666.447C2380.39 678.921 2399.76 682.907 2421.05 678.412C2443.81 669.411 2447.23 655.738 2431.3 637.391C2409.13 630.76 2387.48 622.785 2366.36 613.463C2346.3 588.417 2348.58 565.63 2373.19 545.096C2379.4 542.508 2385.09 539.66 2390.28 536.55Z" fill="white"/>
</g>
<defs>
<clipPath id="clip0_35_380">
<rect width="2665" height="800" fill="white"/>
</clipPath>
</defs>
</svg>
